<svg width="16" viewBox="-13 -5 26 10" xmlns="http://www.w3.org/2000/svg">
<path d="M-11,-3.5 C-8.5,-3 -6.5,-1.5 -5,-0.3" fill="none" stroke="#85B7EB" stroke-width="1" stroke-linecap="round"/>
<path d="M-12,-1 C-8.5,-0.5 -6.5,0 -5,0" fill="none" stroke="#85B7EB" stroke-width="1" stroke-linecap="round"/>
<path d="M-11,2 C-8.5,1.5 -6.5,0.8 -5,0.3" fill="none" stroke="#85B7EB" stroke-width="0.8" stroke-linecap="round"/>
<path d="M11,-3.5 C8.5,-3 6.5,-1.5 5,-0.3" fill="none" stroke="#85B7EB" stroke-width="1" stroke-linecap="round"/>
<path d="M12,-1 C8.5,-0.5 6.5,0 5,0" fill="none" stroke="#85B7EB" stroke-width="1" stroke-linecap="round"/>
<path d="M11,2 C8.5,1.5 6.5,0.8 5,0.3" fill="none" stroke="#85B7EB" stroke-width="0.8" stroke-linecap="round"/>
<path d="M-5,0 C-4.8,-1.5 -3,-3 0,-3 C3,-3 4.8,-1.5 5,0 C4.8,1.5 3,3 0,3 C-3,3 -4.8,1.5 -5,0Z" fill="none" stroke="#378ADD" stroke-width="1.3"/>
<circle cx="0" cy="0" r="1.5" fill="#185FA5"/>
</svg>