<svg width="32" viewBox="-26 -9 52 18" xmlns="http://www.w3.org/2000/svg">
<path d="M-22,-7 C-17,-6 -13,-3 -10,-0.5" fill="none" stroke="#85B7EB" stroke-width="1.1" stroke-linecap="round"/>
<path d="M-24,-2 C-18,-1.5 -13,-0.5 -10,0" fill="none" stroke="#85B7EB" stroke-width="1.1" stroke-linecap="round"/>
<path d="M-22,3.5 C-17,3 -13,1.5 -10,0.5" fill="none" stroke="#85B7EB" stroke-width="0.8" stroke-linecap="round"/>
<path d="M22,-7 C17,-6 13,-3 10,-0.5" fill="none" stroke="#85B7EB" stroke-width="1.1" stroke-linecap="round"/>
<path d="M24,-2 C18,-1.5 13,-0.5 10,0" fill="none" stroke="#85B7EB" stroke-width="1.1" stroke-linecap="round"/>
<path d="M22,3.5 C17,3 13,1.5 10,0.5" fill="none" stroke="#85B7EB" stroke-width="0.8" stroke-linecap="round"/>
<circle cx="-19" cy="-5.5" r="0.8" fill="#B5D4F4"/>
<circle cx="-15" cy="-1" r="1.4" fill="#85B7EB"/>
<circle cx="-13" cy="1.5" r="0.8" fill="#B5D4F4"/>
<circle cx="15" cy="-4.5" r="1.4" fill="#85B7EB"/>
<circle cx="20" cy="-1.5" r="1.4" fill="#85B7EB"/>
<circle cx="16" cy="2.5" r="0.8" fill="#B5D4F4"/>
<path d="M-10,0 C-9.5,-3 -6,-6 0,-6 C6,-6 9.5,-3 10,0 C9.5,3 6,6 0,6 C-6,6 -9.5,3 -10,0Z" fill="none" stroke="#85B7EB" stroke-width="1.5"/>
<circle cx="0" cy="0" r="2.8" fill="#B5D4F4"/>
<circle cx="0.8" cy="-0.8" r="0.8" fill="#1a1a1a"/>
</svg>
