<svg width="48" viewBox="-38 -12 76 24" xmlns="http://www.w3.org/2000/svg">
<path d="M-34,-10 C-27,-9 -20,-5 -15,-1" fill="none" stroke="#85B7EB" stroke-width="1.2" stroke-linecap="round"/>
<path d="M-36,-3 C-27,-2.5 -20,-1 -15,0" fill="none" stroke="#85B7EB" stroke-width="1.2" stroke-linecap="round"/>
<path d="M-34,5.5 C-27,4.5 -20,2.5 -15,0.5" fill="none" stroke="#85B7EB" stroke-width="0.9" stroke-linecap="round"/>
<path d="M34,-10 C27,-9 20,-5 15,-1" fill="none" stroke="#85B7EB" stroke-width="1.2" stroke-linecap="round"/>
<path d="M36,-3 C27,-2.5 20,-1 15,0" fill="none" stroke="#85B7EB" stroke-width="1.2" stroke-linecap="round"/>
<path d="M34,5.5 C27,4.5 20,2.5 15,0.5" fill="none" stroke="#85B7EB" stroke-width="0.9" stroke-linecap="round"/>
<circle cx="-29" cy="-8" r="1" fill="#B5D4F4"/>
<circle cx="-23" cy="-1.5" r="1.7" fill="#85B7EB"/>
<circle cx="-19" cy="2" r="1" fill="#B5D4F4"/>
<circle cx="24" cy="-6.5" r="1.7" fill="#85B7EB"/>
<circle cx="31" cy="-2.5" r="1.7" fill="#85B7EB"/>
<circle cx="26" cy="3.5" r="1" fill="#B5D4F4"/>
<path d="M-15,0 C-14,-4 -10,-9 0,-9 C10,-9 14,-4 15,0 C14,4 10,9 0,9 C-10,9 -14,4 -15,0Z" fill="none" stroke="#85B7EB" stroke-width="1.8"/>
<circle cx="0" cy="0" r="4.5" fill="none" stroke="#85B7EB" stroke-width="1.2"/>
<circle cx="0" cy="0" r="1.8" fill="#B5D4F4"/>
</svg>
